<?xml version="1.0"?>
<svg xmlns="http://www.w3.org/2000/svg" xmlns:xlink="http://www.w3.org/1999/xlink" xmlns:svgjs="http://svgjs.com/svgjs" version="1.1" width="512" height="512" x="0" y="0" viewBox="0 0 24 24" style="enable-background:new 0 0 512 512" xml:space="preserve"><g><path xmlns="http://www.w3.org/2000/svg" d="M16,0H8A5.006,5.006,0,0,0,3,5V23a1,1,0,0,0,1.564.825L6.67,22.386l2.106,1.439a1,1,0,0,0,1.13,0l2.1-1.439,2.1,1.439a1,1,0,0,0,1.131,0l2.1-1.438,2.1,1.437A1,1,0,0,0,21,23V5A5.006,5.006,0,0,0,16,0Zm3,21.1-1.1-.752a1,1,0,0,0-1.132,0l-2.1,1.439-2.1-1.439a1,1,0,0,0-1.131,0l-2.1,1.439-2.1-1.439a1,1,0,0,0-1.129,0L5,21.1V5A3,3,0,0,1,8,2h8a3,3,0,0,1,3,3Z" fill="#ffffff" data-original="#000000"/><rect xmlns="http://www.w3.org/2000/svg" x="7" y="8" width="10" height="2" rx="1" fill="#ffffff" data-original="#000000"/><rect xmlns="http://www.w3.org/2000/svg" x="7" y="12" width="8" height="2" rx="1" fill="#ffffff" data-original="#000000"/></g></svg>
